<svg xmlns="http://www.w3.org/2000/svg" width="45" height="28" fill="none"><path fill="#00001A" fill-rule="evenodd" d="M16.7 27.31a.75.75 0 0 1-.55.2h-7.4a.79.79 0 0 1-.56-.2c-.14-.13-.21-.32-.21-.57v-1.27c0-.2-.02-.37-.05-.53a18.6 18.6 0 0 0-.17-.67L2.26 2.93a2 2 0 0 0-.33-.75 1.31 1.31 0 0 0-.57-.37l-.87-.28a.8.8 0 0 1-.37-.32A.88.88 0 0 1 0 .77.7.7 0 0 1 .24.2C.39.07.63 0 .94 0h11.38c.33 0 .57.07.73.2a.7.7 0 0 1 .23.57c0 .35-.17.59-.53.7l-1.02.24a.67.67 0 0 0-.5.48l-.01.1c-.04.22 0 .51.1.85l4.56 18.19 3.9-13.67-1.23-4.73c-.12-.42-.23-.7-.33-.85a.83.83 0 0 0-.42-.31l-.82-.3a.97.97 0 0 1-.43-.28.64.64 0 0 1-.12-.4c0-.25.08-.45.24-.58.17-.14.4-.21.72-.21h11.14c.33 0 .57.07.73.2.15.14.23.34.23.59a.7.7 0 0 1-.14.44c-.1.12-.26.22-.47.3l-.86.24c-.25.08-.4.22-.47.42l-.02.07c-.04.2-.02.52.08.92l4.54 18.12L36.04 4.8c.17-.72.12-1.35-.15-1.88-.27-.54-.8-.95-1.58-1.24l-.43-.16c-.19-.09-.32-.2-.4-.3a.7.7 0 0 1-.14-.44c0-.24.09-.43.25-.57.16-.15.4-.22.74-.22h6.25c.32 0 .57.07.73.22.17.14.25.33.25.57 0 .18-.05.33-.15.44-.1.1-.26.22-.5.34l-.47.22c-.58.25-1.09.64-1.53 1.17a5.07 5.07 0 0 0-.99 2.1l-4.36 18.9c-.1.33-.15.6-.19.8-.03.21-.05.44-.05.7v1.28c0 .25-.07.44-.21.57a.76.76 0 0 1-.53.2h-7.5a.75.75 0 0 1-.55-.2c-.14-.13-.2-.32-.2-.57v-1.27c0-.19-.02-.36-.05-.5l-.02-.08-.17-.62-3.38-13.03-3.58 12.71c-.06.23-.12.45-.16.69-.05.24-.07.51-.07.83v1.27c0 .25-.07.44-.2.57Zm26.13.08c-.67.4-1.42.61-2.25.61-.82 0-1.55-.2-2.22-.6a4.48 4.48 0 0 1 0-7.7c.67-.4 1.4-.6 2.22-.6a4.27 4.27 0 0 1 3.82 2.2 4.48 4.48 0 0 1-1.57 6.1Z" clip-rule="evenodd"/></svg>